<svg width="13" height="34" viewBox="0 0 13 34" fill="none" xmlns="http://www.w3.org/2000/svg">
<path d="M0.996719 0.916382C2.61135 1.96371 4.27311 2.9732 5.55405 4.44186C7.99439 7.23984 8.3434 11.1772 7.9402 14.7388C7.77861 16.1662 7.53132 17.168 6.13446 17.168C3.28385 17.168 2.11311 11.011 4.47921 9.88056C5.51775 9.38437 6.59771 8.83562 7.46726 9.90206C8.6116 11.3055 8.47323 13.6803 8.52061 15.3623C8.567 17.0092 8.54211 18.659 8.54211 20.3065C8.54211 24.0993 8.15516 35.4711 8.15516 31.6783" stroke="white" stroke-linecap="square"/>
<path d="M5.2531 28.0024C6.32443 29.5201 6.82888 31.3194 8.15517 32.6457" stroke="white" stroke-linecap="square"/>
<path d="M7.96169 32.6457C9.37188 31.3922 11.2078 30.4851 12.2181 28.9697" stroke="white" stroke-linecap="square"/>
</svg>
